<?xml version="1.0" encoding="UTF-8"?>
<!DOCTYPE svg PUBLIC "-//W3C//DTD SVG 1.1//EN" "http://www.w3.org/Graphics/SVG/1.1/DTD/svg11.dtd">
<!-- Creator: CorelDRAW 2020 (64-Bit) -->
<svg xmlns="http://www.w3.org/2000/svg" xml:space="preserve" width="77px" height="74px" version="1.1" style="shape-rendering:geometricPrecision; text-rendering:geometricPrecision; image-rendering:optimizeQuality; fill-rule:evenodd; clip-rule:evenodd"
viewBox="0 0 11189 10741"
 xmlns:xlink="http://www.w3.org/1999/xlink"
 xmlns:xodm="http://www.corel.com/coreldraw/odm/2003">
 <defs>
  <style type="text/css">
   <![CDATA[
    .str0 {stroke:#C4C4C6;stroke-width:352;stroke-miterlimit:2.61313}
    .fil1 {fill:none;fill-rule:nonzero}
    .fil2 {fill:#201E4B;fill-rule:nonzero}
    .fil4 {fill:#473893;fill-rule:nonzero}
    .fil5 {fill:#483994;fill-rule:nonzero}
    .fil3 {fill:#8D85BD;fill-rule:nonzero}
    .fil8 {fill:#8D85BF;fill-rule:nonzero}
    .fil0 {fill:white;fill-rule:nonzero}
    .fil6 {fill:url(#id0);fill-rule:nonzero}
    .fil9 {fill:url(#id1);fill-rule:nonzero}
    .fil7 {fill:url(#id2);fill-rule:nonzero}
   ]]>
  </style>
  <linearGradient id="id0" gradientUnits="userSpaceOnUse" x1="2125" y1="10599" x2="4108" y2="9608">
   <stop offset="0" style="stop-opacity:1; stop-color:#352C73"/>
   <stop offset="0.501961" style="stop-opacity:1; stop-color:#2E3192"/>
   <stop offset="1" style="stop-opacity:1; stop-color:#312969"/>
  </linearGradient>
  <linearGradient id="id1" gradientUnits="userSpaceOnUse" xlink:href="#id0" x1="7790" y1="9183" x2="10906" y2="9183">
  </linearGradient>
  <linearGradient id="id2" gradientUnits="userSpaceOnUse" xlink:href="#id0" x1="851" y1="10741" x2="2833" y2="9325">
  </linearGradient>
 </defs>
 <g id="Layer_x0020_1">
  <metadata id="CorelCorpID_0Corel-Layer"/>
  <g id="_3193818308608">
   <path class="fil0" d="M2692 4510c625,0 1133,-508 1133,-1133 0,-626 -508,-1133 -1133,-1133 -626,0 -1133,507 -1133,1133 0,625 507,1133 1133,1133z"/>
   <path class="fil1 str0" d="M2692 4368c547,0 991,-444 991,-991 0,-548 -444,-992 -991,-992 -548,0 -992,444 -992,992 0,547 444,991 992,991z"/>
   <path class="fil2" d="M6833 15c1117,-1 2235,-10 3353,-1 251,-6 494,86 678,258 183,172 291,409 301,660 32,539 23,1081 22,1621 -2,1136 5,2272 -23,3407 -10,251 -118,488 -302,660 -183,172 -426,265 -678,259 -1099,8 -2199,-2 -3299,-4 -162,-85 -139,-242 -136,-380 4,-210 -89,-285 -292,-283 -547,4 -1095,2 -1643,1 -558,-2 -680,-188 -492,-743 117,-70 255,-97 390,-76 541,-3 1083,0 1624,-2 394,-1 411,-18 409,-382 0,-348 -18,-366 -396,-367 -551,-2 -1101,4 -1652,-3 -148,-2 -338,35 -399,-149 -74,-197 -68,-415 18,-607 63,-130 217,-112 341,-113 560,-7 1119,-1 1679,-4 376,-1 540,-270 386,-626 -62,-143 -192,-119 -303,-120 -613,-5 -1227,-9 -1841,1 -89,14 -180,10 -268,-11 -15,-8 -28,-20 -37,-34 -10,-14 -15,-30 -17,-47 7,-135 5,-270 9,-405 7,-316 60,-374 385,-379 504,-9 1009,-2 1513,-3 72,0 144,1 216,0 332,-5 489,-276 341,-584 -61,-126 -179,-107 -282,-108 -495,-7 -990,-3 -1486,-3 -63,0 -126,0 -189,0 -463,-4 -635,-256 -481,-701 56,-166 198,-168 332,-170 522,-9 1045,-2 1567,-4 99,0 198,-3 297,-1 175,4 271,-65 269,-252 -8,-54 -4,-109 11,-161 14,-53 40,-102 75,-144z"/>
   <path class="fil3" d="M4303 2935c-6,14 -9,30 -8,45 136,255 92,527 54,790 -43,290 -43,586 1,876 58,273 48,556 -30,825 -17,266 -5,534 37,798 37,184 65,393 -74,566 -1110,2 -2220,11 -3330,4 -250,-8 -487,-110 -663,-287 -176,-177 -278,-414 -285,-664 -6,-1624 -7,-3249 -1,-4874 1,-199 64,-393 181,-554 116,-162 280,-283 468,-347 169,-60 346,-94 526,-101 1037,-6 2075,2 3113,6 48,76 78,162 90,251 11,90 3,181 -25,267 -58,316 -58,640 0,956 43,230 37,466 -18,694 -64,247 0,501 -36,749z"/>
   <path class="fil4" d="M4303 2935c-4,-972 -8,-1944 -11,-2917 847,-26 1694,-21 2541,-2 6,639 6,639 -626,639 -540,0 -1081,7 -1621,-3 -186,-3 -253,51 -247,243 17,563 -53,459 450,464 603,6 1207,6 1810,-1 168,-2 237,39 240,224 11,647 18,647 -625,647 -541,0 -1081,10 -1621,-4 -209,-6 -265,65 -255,262 7,148 45,305 -35,448z"/>
   <path class="fil5" d="M4283 6835l12 -1358c2,-3 5,-6 9,-9 4,-2 8,-3 12,-3 5,0 9,1 13,3 3,3 6,6 9,9 18,652 18,652 668,652 521,0 1042,11 1562,-6 223,-7 280,74 270,278 -7,157 -44,324 47,474 -799,1 -1599,2 -2398,3 -70,-1 -145,14 -204,-43z"/>
   <path class="fil4" d="M4338 5477l-21 0 -22 0c0,-832 0,-1665 0,-2497 238,-51 482,-66 724,-45 513,-4 1027,7 1540,-4 214,-5 281,74 281,283 0,637 7,637 -635,637 -540,0 -1081,7 -1621,-4 -189,-4 -251,53 -245,244 18,562 -53,456 454,463 603,7 1206,6 1810,-3 174,-2 232,51 236,230 12,693 18,692 -663,693 -613,1 -1225,2 -1838,3z"/>
   <polygon class="fil6" points="2737,8370 2187,10724 2922,10724 3481,8370 "/>
   <polygon class="fil7" points="1561,10724 2241,8370 1561,8370 826,10724 "/>
   <path class="fil8" d="M4194 9552l-614 -65c16,-90 50,-177 100,-254 50,-67 115,-121 189,-160 77,-38 159,-64 243,-76 111,-18 223,-27 336,-26 155,-3 310,8 464,32 108,18 209,64 292,135 60,55 104,124 130,202 30,79 46,163 47,248l0 741c-2,62 3,125 14,186 16,59 38,117 66,171l-604 0c-18,-31 -34,-64 -47,-99 -10,-35 -18,-70 -22,-106 -72,73 -158,132 -252,174 -126,48 -261,72 -396,69 -164,12 -326,-38 -456,-139 -50,-42 -89,-95 -116,-154 -27,-59 -41,-124 -40,-189 -4,-115 36,-228 113,-314 116,-102 261,-166 415,-183 241,-48 397,-82 469,-102 77,-21 153,-47 227,-77 7,-59 -11,-119 -49,-165 -49,-37 -111,-54 -172,-48 -82,-5 -164,12 -237,51 -49,37 -84,89 -100,148zm558 338c-88,32 -181,60 -276,84 -89,16 -174,51 -248,103 -17,15 -31,33 -40,54 -9,21 -14,44 -14,66 0,23 5,46 14,67 9,21 22,39 39,55 44,35 100,52 156,48 70,0 139,-17 200,-52 55,-29 101,-73 131,-128 28,-61 41,-127 39,-195l-1 -102z"/>
   <polygon class="fil8" points="5788,8370 6433,8370 6433,10686 5788,10686 "/>
   <polygon class="fil8" points="6866,8370 7511,8370 7511,10686 6866,10686 "/>
   <polygon class="fil8" points="976,8370 1561,10724 826,10724 284,8370 "/>
   <polygon class="fil8" points="2241,8370 2921,10724 2187,10724 1561,8370 "/>
   <polygon class="fil9" points="9887,7761 11039,7761 8947,10741 7883,10741 "/>
   <polygon class="fil8" points="7971,7761 9962,10741 11038,10741 9047,7761 "/>
  </g>
 </g>
</svg>
